# xmcd
#
# Track frame offsets:
#	182
#	14757
#	32482
#	46825
#
# Disc length: 892 seconds
#
# Revision: 0
# Processed by: cddbd v1.5.2PL0 Copyright (c) Steve Scherf et al.
# Submitted via: dBpowerAMP V4.0
#
DISCID=28037a04
DTITLE=The Charlatans - Jesus Hairdo
DYEAR=1994
DGENRE=Live Session
TTITLE0=Jesus Hairdo
TTITLE1=I Never Want An Easy Life If Me And He Were Never To Get There
TTITLE2=Another Rider Up In Flames
TTITLE3=Up To Our Hips
EXTD=
EXTT0=
EXTT1=
EXTT2=
EXTT3=
PLAYORDER=
